# AST/ASF file generated using VICON BodyLanguage
# -----------------------------------------------
:version 1.10
:name VICON
:units
  mass 1.0
  length 0.45
  angle deg
:documentation
   .ast/.asf automatically generated from VICON data using
   VICON BodyBuilder and BodyLanguage model FoxedUp or BRILLIANT.MOD
:root
   order TX TY TZ RX RY RZ
   axis XYZ
   position 0 0 0  
   orientation 0 0 0 
:bonedata
  begin
     id 1 
     name lhipjoint
     direction 0.700308 -0.549349 0.455834 
     length 2.59063 
     axis 0 0 0  XYZ
  end
  begin
     id 2 
     name lfemur
     direction 0.34202 -0.939693 0  
     length 6.31066  
     axis 0 0 20  XYZ
    dof rx ry rz
    limits (-160.0 20.0)
           (-70.0 70.0)
           (-60.0 70.0)
  end
  begin
     id 3 
     name ltibia
     direction 0.34202 -0.939693 0   
     length 7.36093   
     axis 0 0 20   XYZ
    dof rx
    limits (-10.0 170.0)
  end
  begin
     id 4 
     name lfoot
     direction 0.0905332 -0.248738 0.96433   
     length 2.0233   
     axis -90 7.62852e-016 20   XYZ
    dof rx rz
    limits (-45.0 90.0)
           (-70.0 20.0)
  end
  begin
     id 5 
     name ltoes
     direction 1.53573e-011 -4.21855e-011 1   
     length 1.01524   
     axis -90 7.62852e-016 20   XYZ
    dof rx
    limits (-90.0 20.0)
  end
  begin
     id 6 
     name rhipjoint
     direction -0.61416 -0.607328 0.503944   
     length 2.34332  
     axis 0 0 0  XYZ 
  end
  begin
     id 7 
     name rfemur
     direction -0.34202 -0.939693 0   
     length 6.58548   
     axis 0 0 -20   XYZ
    dof rx ry rz
    limits (-160.0 20.0)
           (-70.0 70.0)
           (-70.0 60.0)
  end
  begin
     id 8 
     name rtibia
     direction -0.34202 -0.939693 0   
     length 7.20707   
     axis 0 0 -20   XYZ
    dof rx
    limits (-10.0 170.0)
 end
 begin
     id 9 
     name rfoot
     direction -0.136772 -0.375778 0.916561   
     length 1.92184  
     axis -90 -7.62852e-016 -20   XYZ
    dof rx rz
    limits (-45.0 90.0)
           (-20.0 70.0)
  end
  begin
     id 10 
     name rtoes
     direction -1.53535e-011 -4.21828e-011 1   
     length 0.951089   
     axis -90 -7.62852e-016 -20   XYZ
    dof rx
    limits (-90.0 20.0)
  end
  begin
     id 11 
     name lowerback
     direction -0.0444974 0.988086 -0.147332   
     length 1.9609   
     axis 0 0 0   XYZ
    dof rx ry rz
    limits (-20.0 45.0)
           (-30.0 30.0)
           (-30.0 30.0)
  end
  begin
     id 12 
     name upperback
     direction 0.00613146 0.999513 0.0306081   
     length 1.94944   
     axis 0 0 0   XYZ
    dof rx ry rz
    limits (-20.0 45.0)
           (-30.0 30.0)
           (-30.0 30.0)
  end
  begin
     id 13 
     name thorax
     direction 0.0254621 0.994518 0.101418   
     length 2.0119   
     axis 0 0 0   XYZ
    dof rx ry rz
    limits (-20.0 45.0)
           (-30.0 30.0)
           (-30.0 30.0)
  end
  begin
     id 14 
     name lowerneck
     direction 0.0168698 0.977854 0.208608   
     length 1.6375   
     axis 0 0 0   XYZ
    dof rx ry rz
    limits (-20.0 45.0)
           (-30.0 30.0)
           (-30.0 30.0)
  end
  begin
     id 15 
     name upperneck
     direction -0.0283988 0.989338 -0.142843   
     length 1.6851   
     axis 0 0 0   XYZ
    dof rx ry rz
    limits (-20.0 45.0)
           (-30.0 30.0)
           (-30.0 30.0)
  end
  begin
     id 16
     name head
     direction -0.0129422 0.99741 -0.0707489  
     length 1.69029  
     axis 0 0 0   XYZ
    dof rx ry rz
    limits (-20.0 45.0)
           (-30.0 30.0)
           (-30.0 30.0)
  end
  begin
     id 17 
     name lclavicle
     direction 0.820295 0.564628 -0.0911715  
     length 3.16484  
     axis 0 0 0   XYZ
    dof ry rz
    limits (-20.0 10.0)
           (0.0 20.0)
  end
  begin
     id 18 
     name lhumerus
     direction 1 -4.48969e-011 1.00186e-027   
     length 5.17853   
     axis 180 -30 -90   XYZ
    dof rx ry rz
    limits (-60.0 90.0)
           (-90.0 90.0)
           (-90.0 90.0)
  end
  begin
     id 19
     name lradius
     direction 1 -4.48966e-011 -1.52922e-027   
     length 3.40399   
     axis 180 -30 -90   XYZ
    dof rx
    limits (-10.0 170.0)
  end
  begin
     id 20
     name lwrist
     direction 1 -4.48981e-011 -3.80893e-027   
     length 1.70199   
     axis 1.1049e-015 90 90   XYZ
    dof ry
    limits (-180.0 0.0)
 end
  begin
     id 21 
     name lhand
     direction 1 -4.48957e-011 -7.61786e-027   
     length 0.708964   
     axis 4.86085e-015 90 90   XYZ
    dof rx rz
    limits (-90.0 90.0)
           (-45.0 45.0)
  end
  begin
     id 22 
     name lfingers
     direction 1 -4.48929e-011 -1.52357e-026   
     length 0.571585   
     axis 9.7217e-015 90 90   XYZ
    dof rx
    limits (0.0 90.0)
  end
  begin
     id 23
     name lthumb
     direction 0.707107 -6.34905e-011 0.707107   
     length 0.820685   
     axis -90 45 2.85299e-015   XYZ
    dof rx rz
    limits (-45.0 45.0)
           (-45.0 45.0)
  end
  begin
     id 24 
     name rclavicle
     direction -0.858602 0.463947 -0.218075   
     length 3.35137  
     axis 0 0 0   XYZ 
    dof ry rz
    limits (-10.0 20.0)
           (-20.0 0.0)
  end
  begin
     id 25 
     name rhumerus
     direction -1 -4.48969e-011 -1.98511e-027  
     length 5.42351   
     axis 180 30 90   XYZ
    dof rx ry rz
    limits (-90.0 60.0)
           (-90.0 90.0)
           (-90.0 90.0)
  end
  begin
     id 26 
     name rradius
     direction -1 -4.48961e-011 -2.82624e-027   
     length 3.42066   
     axis 180 30 90   XYZ
    dof rx
    limits (-10.0 170.0)
  end
  begin
     id 27 
     name rwrist
     direction -1 -4.48966e-011 -3.80893e-027   
     length 1.71033   
     axis 1.1049e-015 -90 -90   XYZ
    dof ry
    limits (-180.0 0.0)
  end
  begin
     id 28
     name rhand
     direction -1 -4.48964e-011 -7.61786e-027   
     length 0.743608   
     axis 4.86085e-015 -90 -90   XYZ
    dof rx rz
    limits (-90.0 90.0)
           (-45.0 45.0)
  end
  begin
     id 29
     name rfingers
     direction -1 -4.48961e-011 -1.52357e-026   
     length 0.599516   
     axis 9.7217e-015 -90 -90   XYZ
    dof rx
    limits (0.0 90.0)
  end
  begin
     id 30
     name rthumb
     direction -0.707107 -6.34913e-011 0.707107   
     length 0.860789   
     axis -90 -45 -2.85299e-015   XYZ
    dof rx rz
    limits (-45.0 45.0)
           (-45.0 45.0)
  end
:hierarchy
  begin
    root lhipjoint rhipjoint lowerback
    lhipjoint lfemur
    lfemur ltibia
    ltibia lfoot
    lfoot ltoes
    rhipjoint rfemur
    rfemur rtibia
    rtibia rfoot
    rfoot rtoes
    lowerback upperback
    upperback thorax
    thorax lowerneck lclavicle rclavicle
    lowerneck upperneck
    upperneck head
    lclavicle lhumerus
    lhumerus lradius
    lradius lwrist
    lwrist lhand lthumb
    lhand lfingers
    rclavicle rhumerus
    rhumerus rradius
    rradius rwrist
    rwrist rhand rthumb
    rhand rfingers
  end

#!OML:ASF E:\mmandel\Project 1\Capture day 1\Session 2\Subject.ASF
:FULLY-SPECIFIED
:DEGREES
1
root 22.4603 2.34992 -0.0849624 177.426 72.8462 85.6919
lowerback 2.69154 0.769511 -0.13083
upperback -1.39834 0.989243 -1.5178
thorax -2.92079 0.484583 -1.53792
lowerneck -8.5169 14.3406 19.0169
upperneck 18.7426 19.3559 -13.7902
head 10.6887 9.0642 -5.17709
rclavicle -1.59028e-014 -1.98785e-014
rhumerus 8.08378 -60.7508 -6.87983
rradius 70.0366
rwrist -20.2857
rhand -15.4387 28.0029
rfingers 7.12502
rthumb 10.7416 -1.70248
lclavicle -1.59028e-014 -1.98785e-014
lhumerus 24.987 36.947 56.5098
lradius 87.1305
lwrist 34.0524
lhand -19.9272 -31.124
lfingers 7.12502
lthumb 6.4101 -1.24101
rfemur -1.25018 -9.67131 19.4294
rtibia 14.2267
rfoot -49.2976 -38.7946
rtoes 42.2209
lfemur -69.7477 58.0914 -22.0631
ltibia 79.843
lfoot 8.08757 11.8651
ltoes 21.9796
2
root 22.4596 2.34669 -0.0845461 177.338 72.9822 85.5529
lowerback 2.61351 0.796484 -0.186728
upperback -1.41551 1.02428 -1.5043
thorax -2.89483 0.50346 -1.4933
lowerneck -8.58592 14.3955 18.9671
upperneck 18.8986 19.4239 -13.6834
head 10.7524 9.09358 -5.11464
rclavicle 5.08889e-014 4.72114e-015
rhumerus 8.29597 -60.7689 -7.1223
rradius 70.1009
rwrist -20.2823
rhand -15.4337 27.95
rfingers 7.12502
rthumb 10.7465 -1.75513
lclavicle 5.08889e-014 4.72114e-015
lhumerus 24.8354 36.993 56.4081
lradius 87.1506
lwrist 34.0988
lhand -19.9255 -31.1691
lfingers 7.12502
lthumb 6.41173 -1.28619
rfemur -1.35301 -9.56507 19.442
rtibia 14.2822
rfoot -49.3473 -38.6857
rtoes 42.9844
lfemur -69.8082 58.2574 -22.1284
ltibia 79.8472
lfoot 8.11225 11.7823
ltoes 21.8818
3
root 22.4607 2.34296 -0.0847185 177.403 73.1257 85.5411
lowerback 2.50694 0.815459 -0.196914
upperback -1.44982 1.05083 -1.48524
thorax -2.87001 0.517295 -1.46784
lowerneck -8.62489 14.4416 18.9098
upperneck 19.0405 19.4827 -13.5689
head 10.8019 9.12056 -5.05215
rclavicle 1.90833e-014 -4.08999e-014
rhumerus 8.51384 -60.7472 -7.43926
rradius 70.2583
rwrist -20.2691
rhand -15.5434 27.8405
rfingers 7.12502
rthumb 10.6406 -1.87005
lclavicle 1.90833e-014 -4.08999e-014
lhumerus 24.6256 37.0632 56.2738
lradius 87.2084
lwrist 34.1433
lhand -19.8869 -31.2054
lfingers 7.12502
lthumb 6.44903 -1.3236
rfemur -1.50155 -9.46452 19.4928
rtibia 14.3475
rfoot -49.3381 -38.7425
rtoes 43.4869
lfemur -69.9144 58.4249 -22.2004
ltibia 79.8566
lfoot 8.06525 11.7558
ltoes 21.876
4
root 22.4625 2.34265 -0.0868184 177.371 73.1396 85.5541
lowerback 2.57518 0.809101 -0.171311
upperback -1.45902 1.04264 -1.47259
thorax -2.91791 0.512536 -1.47013
lowerneck -8.59428 14.4741 18.9426
upperneck 19.1144 19.5353 -13.5623
head 10.8358 9.14643 -5.04605
rclavicle -8.26944e-014 -2.08426e-013
rhumerus 8.58462 -60.6643 -7.48238
rradius 70.3099
rwrist -20.3654
rhand -15.5728 27.8393
rfingers 7.12502
rthumb 10.6123 -1.87277
lclavicle -8.26944e-014 -2.08426e-013
lhumerus 24.5455 37.107 56.2852
lradius 87.2204
lwrist 34.0936
lhand -19.8364 -31.1855
lfingers 7.12502
lthumb 6.49775 -1.30513
rfemur -1.56885 -9.50894 19.4988
rtibia 14.4991
rfoot -49.3929 -38.8473
rtoes 43.3311
lfemur -69.8361 58.4867 -22.1445
ltibia 79.8841
lfoot 8.05775 11.7261
ltoes 22.178
5
root 22.4591 2.34193 -0.0887699 177.412 73.1639 85.5728
lowerback 2.53994 0.824191 -0.173604
upperback -1.47283 1.06351 -1.45182
thorax -2.91219 0.523222 -1.44806
lowerneck -8.59433 14.4969 18.9555
upperneck 19.2051 19.5705 -13.5385
head 10.8742 9.16307 -5.03274
rclavicle -1.90833e-014 -8.46823e-014
rhumerus 8.59622 -60.631 -7.38204
rradius 70.2661
rwrist -20.4571
rhand -15.5458 27.7936
rfingers 7.12502
rthumb 10.6383 -1.91712
lclavicle -1.90833e-014 -8.46823e-014
lhumerus 24.561 37.1254 56.3951
lradius 87.2118
lwrist 34.0473
lhand -19.8164 -31.1812
lfingers 7.12502
lthumb 6.51705 -1.30148
rfemur -1.69453 -9.56753 19.5209
rtibia 14.6197
rfoot -49.2763 -39.0665
rtoes 43.0232
lfemur -69.9783 58.5924 -22.2421
ltibia 79.9357
lfoot 8.11536 11.6284
ltoes 22.1972
